#!OML:ASF X:\für Bonn\!DataBase\2005_08_11_Bastian_Final\c3d\Bastian.ASF
:FULLY-SPECIFIED
:DEGREES
496
root 0.556085 1.25227 20.3346 -642.566 -1.53608 -178.902
lowerback 11.4175 -0.820207 2.75119
upperback 10.3645 -2.07127 1.68337
thorax 4.49075 -1.52016 0.323321
lowerneck -3.19976 -4.39851 -8.54109
upperneck 11.3431 -6.11933 4.52804
head 4.31752 -3.29405 2.46577
rclavicle -2.42517e-014 1.18277e-014
rhumerus -54.8498 51.88 -110.231
rradius 24.9795
rwrist -2.07533
rhand -13.5905 -1.00317
rfingers 7.12502
rthumb 12.524 -30.6078
lclavicle -2.42517e-014 1.18277e-014
lhumerus -37.772 -38.6574 104.801
lradius 17.9794
lwrist 16.8978
lhand -9.33748 -5.0296
lfingers 7.12502
lthumb 16.6216 24.2787
rfemur 3.79618 8.0133 22.9292
rtibia 31.4403
rfoot -15.3153 -26.4951
rtoes 1.91656
lfemur 7.00515 2.79224 -16.6522
ltibia 22.3246
lfoot 1.21679 7.53508
ltoes -0.188676
497
root 0.55856 1.25158 20.3327 -642.514 -1.48978 -178.876
lowerback 11.3656 -0.835796 2.79309
upperback 10.2839 -2.07305 1.66961
thorax 4.42963 -1.51045 0.28638
lowerneck -3.42615 -4.44113 -8.50828
upperneck 11.2142 -6.14508 4.56157
head 4.31787 -3.29227 2.46526
rclavicle -8.74653e-015 1.55052e-014
rhumerus -55.0829 51.9212 -110.552
rradius 25.0087
rwrist -2.3242
rhand -13.3895 -0.991806
rfingers 7.12502
rthumb 12.7177 -30.5845
lclavicle -8.74653e-015 1.55052e-014
lhumerus -37.8621 -38.6502 104.689
lradius 18.0505
lwrist 17.2727
lhand -9.1853 -4.88747
lfingers 7.12502
lthumb 16.7681 24.4084
rfemur 3.75044 8.10895 22.9974
rtibia 31.4615
rfoot -15.4744 -26.6874
rtoes 2.35549
lfemur 6.98515 2.8485 -16.5469
ltibia 22.2834
lfoot 0.871381 7.50456
ltoes -1.17727
498
root 0.560646 1.25077 20.3311 -642.466 -1.49283 -178.856
lowerback 11.3094 -0.840469 2.7735
upperback 10.214 -2.06616 1.65719
thorax 4.38391 -1.50049 0.284087
lowerneck -3.62453 -4.47841 -8.47108
upperneck 11.0191 -6.16116 4.58534
head 4.29228 -3.28456 2.46286
rclavicle -3.29983e-014 2.56432e-014
rhumerus -55.3259 52.0043 -110.853
rradius 25.0534
rwrist -2.67154
rhand -13.2306 -1.06191
rfingers 7.12502
rthumb 12.8709 -30.645
lclavicle -3.29983e-014 2.56432e-014
lhumerus -38.0084 -38.7802 104.687
lradius 18.1423
lwrist 17.8243
lhand -9.11514 -4.71295
lfingers 7.12502
lthumb 16.8356 24.5772
rfemur 3.68338 8.11882 22.9746
rtibia 31.4853
rfoot -15.5628 -26.7645
rtoes 2.79207
lfemur 6.9723 2.87615 -16.5034
ltibia 22.2394
lfoot 0.474077 7.54799
ltoes -2.05475
499
root 0.562696 1.24999 20.3296 -642.406 -1.49413 -178.823
lowerback 11.2432 -0.85654 2.73644
upperback 10.1388 -2.07639 1.66153
thorax 4.33882 -1.50069 0.310061
lowerneck -3.7967 -4.50738 -8.50155
upperneck 10.8158 -6.16778 4.64485
head 4.2624 -3.27385 2.48352
rclavicle 3.97569e-016 2.27608e-014
rhumerus -55.5151 52.0321 -111.055
rradius 25.0677
rwrist -3.00443
rhand -13.1067 -1.169
rfingers 7.12502
rthumb 12.9904 -30.7446
lclavicle 3.97569e-016 2.27608e-014
lhumerus -38.1025 -38.8283 104.665
lradius 18.2034
lwrist 18.3115
lhand -9.02155 -4.51095
lfingers 7.12502
lthumb 16.9257 24.7715
rfemur 3.61637 8.17003 22.9741
rtibia 31.51
rfoot -15.6598 -26.9046
rtoes 2.93768
lfemur 6.94036 2.92966 -16.4568
ltibia 22.1929
lfoot 0.197338 7.57026
ltoes -3.56682
500
root 0.564862 1.24973 20.3288 -642.366 -1.45335 -178.828
lowerback 11.1901 -0.867209 2.7701
upperback 10.0735 -2.07604 1.65625
thorax 4.29576 -1.49227 0.285884
lowerneck -3.97722 -4.53462 -8.46431
upperneck 10.618 -6.17208 4.65804
head 4.23192 -3.26191 2.47899
rclavicle -6.75868e-015 4.34344e-014
rhumerus -55.8144 52.113 -111.397
rradius 25.1006
rwrist -3.4913
rhand -13.0879 -1.29609
rfingers 7.12502
rthumb 13.0084 -30.8705
lclavicle -6.75868e-015 4.34344e-014
lhumerus -38.2259 -38.948 104.663
lradius 18.2242
lwrist 18.8348
lhand -8.97622 -4.381
lfingers 7.12502
lthumb 16.9693 24.8977
rfemur 3.56353 8.19181 23.0131
rtibia 31.5415
rfoot -15.7237 -26.9977
rtoes 3.05886
lfemur 6.95164 2.94969 -16.3653
ltibia 22.1346
lfoot -0.0946925 7.65744
ltoes -4.58971
501
root 0.566682 1.24875 20.3271 -642.32 -1.45666 -178.807
lowerback 11.1468 -0.872953 2.74342
upperback 10.0032 -2.07245 1.66159
thorax 4.24369 -1.48586 0.306683
lowerneck -4.171 -4.57373 -8.49797
upperneck 10.4237 -6.19124 4.71713
head 4.20938 -3.25789 2.49864
rclavicle -6.36111e-015 3.57812e-014
rhumerus -56.1687 52.215 -111.746
rradius 25.1619
rwrist -4.11183
rhand -13.1111 -1.52318
rfingers 7.12502
rthumb 12.9861 -31.099
lclavicle -6.36111e-015 3.57812e-014
lhumerus -38.294 -38.9104 104.598
lradius 18.2617
lwrist 19.167
lhand -8.88566 -4.28905
lfingers 7.12502
lthumb 17.0565 24.9822
rfemur 3.49561 8.13625 22.9844
rtibia 31.571
rfoot -15.7041 -27.0588
rtoes 3.04543
lfemur 6.94391 2.9125 -16.3395
ltibia 22.0813
lfoot -0.365692 7.77554
ltoes -5.33109
502
root 0.568749 1.24808 20.3274 -642.255 -1.45521 -178.785
lowerback 11.0783 -0.88595 2.74429
upperback 9.93541 -2.07591 1.63878
thorax 4.20626 -1.47965 0.282408
lowerneck -4.41275 -4.60449 -8.47595
upperneck 10.2526 -6.20106 4.77512
head 4.19936 -3.24733 2.5083
rclavicle 3.26007e-014 -2.75317e-014
rhumerus -56.3176 52.1767 -111.928
rradius 25.1523
rwrist -4.57411
rhand -13.1503 -1.73629
rfingers 7.12502
rthumb 12.9483 -31.3145
lclavicle 3.26007e-014 -2.75317e-014
lhumerus -38.3919 -38.9959 104.561
lradius 18.2807
lwrist 19.5811
lhand -8.7958 -4.17754
lfingers 7.12502
lthumb 17.143 25.0862
rfemur 3.40045 8.08594 22.9609
rtibia 31.6026
rfoot -15.6541 -27.1161
rtoes 2.82302
lfemur 6.915 2.91424 -16.3012
ltibia 22.0234
lfoot -0.541853 7.86794
ltoes -6.13971
503
root 0.570434 1.24709 20.3254 -642.218 -1.41031 -178.772
lowerback 11.0292 -0.898505 2.78402
upperback 9.87842 -2.07997 1.64124
thorax 4.17038 -1.47445 0.263089
lowerneck -4.63214 -4.64177 -8.45609
upperneck 10.0795 -6.21516 4.77776
head 4.18383 -3.24195 2.50154
rclavicle 1.07344e-014 -3.04141e-014
rhumerus -56.5209 52.1942 -112.151
rradius 25.1288
rwrist -5.12743
rhand -13.2772 -1.88492
rfingers 7.12502
rthumb 12.826 -31.4709
lclavicle 1.07344e-014 -3.04141e-014
lhumerus -38.4296 -38.9904 104.499
lradius 18.2394
lwrist 19.8436
lhand -8.72924 -4.19904
lfingers 7.12502
lthumb 17.2071 25.0591
rfemur 3.33293 7.96005 22.9708
rtibia 31.6378
rfoot -15.5952 -27.1004
rtoes 2.65102
lfemur 6.92285 2.87955 -16.2182
ltibia 21.9571
lfoot -0.74239 7.9887
ltoes -6.42294
504
root 0.571671 1.24663 20.3253 -642.169 -1.41523 -178.76
lowerback 10.9827 -0.91015 2.77191
upperback 9.82072 -2.0858 1.63858
thorax 4.13315 -1.47268 0.267603
lowerneck -4.92428 -4.67441 -8.48199
upperneck 9.93289 -6.2212 4.84587
head 4.19129 -3.23056 2.52079
rclavicle -1.27222e-014 2.69353e-014
rhumerus -56.7238 52.2349 -112.331
rradius 25.1249
rwrist -5.69219
rhand -13.356 -2.00784
rfingers 7.12502
rthumb 12.75 -31.5986
lclavicle -1.27222e-014 2.69353e-014
lhumerus -38.5321 -39.1019 104.541
lradius 18.2335
lwrist 20.2535
lhand -8.68823 -4.18702
lfingers 7.12502
lthumb 17.2465 25.0677
rfemur 3.25205 7.86932 22.9248
rtibia 31.6723
rfoot -15.5489 -27.0504
rtoes 2.45539
lfemur 6.91527 2.87613 -16.1921
ltibia 21.8925
lfoot -0.88458 8.12209
ltoes -6.92626
505
root 0.573564 1.24544 20.3254 -642.109 -1.41631 -178.749
lowerback 10.9337 -0.915632 2.77293
upperback 9.74673 -2.0784 1.62271
thorax 4.07907 -1.46151 0.25046
lowerneck -5.17834 -4.70907 -8.46013
upperneck 9.81233 -6.23651 4.87417
head 4.19821 -3.22602 2.52022
rclavicle 6.36111e-015 2.88238e-015
rhumerus -56.9469 52.2283 -112.533
rradius 25.1118
rwrist -6.21105
rhand -13.4419 -2.09606
rfingers 7.12502
rthumb 12.6672 -31.6919
lclavicle 6.36111e-015 2.88238e-015
lhumerus -38.6095 -39.0969 104.494
lradius 18.2021
lwrist 20.4112
lhand -8.64358 -4.25548
lfingers 7.12502
lthumb 17.2895 24.9955
rfemur 3.16789 7.82876 22.908
rtibia 31.7028
rfoot -15.495 -27.0528
rtoes 2.21239
lfemur 6.89402 2.90119 -16.1446
ltibia 21.8315
lfoot -1.05059 8.27249
ltoes -7.1475
506
root 0.573865 1.24506 20.3253 -642.059 -1.39767 -178.74
lowerback 10.8851 -0.924431 2.78839
upperback 9.68071 -2.07763 1.62836
thorax 4.03395 -1.45483 0.247906
lowerneck -5.45896 -4.74846 -8.4708
upperneck 9.6935 -6.25316 4.9084
head 4.21141 -3.22242 2.52594
rclavicle 2.5842e-014 -2.42517e-014
rhumerus -57.0203 52.1651 -112.544
rradius 25.0474
rwrist -6.62114
rhand -13.484 -2.03386
rfingers 7.12502
rthumb 12.6267 -31.6322
lclavicle 2.5842e-014 -2.42517e-014
lhumerus -38.7287 -39.1899 104.547
lradius 18.1777
lwrist 20.7393
lhand -8.58532 -4.31191
lfingers 7.12502
lthumb 17.3456 24.9341
rfemur 3.08701 7.75294 22.8956
rtibia 31.7353
rfoot -15.4475 -27.0192
rtoes 1.90061
lfemur 6.88794 2.82203 -16.1143
ltibia 21.7659
lfoot -1.26824 8.52882
ltoes -7.24026
507
root 0.574692 1.24363 20.3238 -642.019 -1.36984 -178.715
lowerback 10.8526 -0.946481 2.83609
upperback 9.62618 -2.09373 1.61317
thorax 3.99086 -1.4553 0.207097
lowerneck -5.77338 -4.78608 -8.47512
upperneck 9.59446 -6.27051 4.97383
head 4.23699 -3.21773 2.53922
rclavicle -9.93923e-015 2.69353e-014
rhumerus -57.0139 52.0833 -112.502
rradius 24.9968
rwrist -6.9725
rhand -13.4726 -1.91517
rfingers 7.12502
rthumb 12.6376 -31.5129
lclavicle -9.93923e-015 2.69353e-014
lhumerus -38.7746 -39.195 104.483
lradius 18.1132
lwrist 20.9116
lhand -8.53158 -4.42577
lfingers 7.12502
lthumb 17.3973 24.8157
rfemur 3.01167 7.61063 22.878
rtibia 31.7658
rfoot -15.3537 -26.924
rtoes 1.72628
lfemur 6.88515 2.79801 -16.0563
ltibia 21.6985
lfoot -1.42175 8.74546
ltoes -7.324
508
root 0.575541 1.24346 20.3238 -641.957 -1.35322 -178.713
lowerback 10.7832 -0.958288 2.85011
upperback 9.57514 -2.10025 1.61578
thorax 3.97314 -1.45295 0.20159
lowerneck -6.10154 -4.81533 -8.46457
upperneck 9.49521 -6.27202 5.00131
head 4.26209 -3.20605 2.53922
rclavicle 1.39149e-014 -1.72943e-014
rhumerus -56.9799 52.0217 -112.385
rradius 24.9575
rwrist -7.25441
rhand -13.3578 -1.74191
rfingers 7.12502
rthumb 12.7482 -31.3327
lclavicle 1.39149e-014 -1.72943e-014
lhumerus -38.7665 -39.1315 104.402
lradius 18.0441
lwrist 21.0215
lhand -8.47141 -4.50555
lfingers 7.12502
lthumb 17.4552 24.7308
rfemur 2.92241 7.54948 22.8687
rtibia 31.792
rfoot -15.299 -26.8763
rtoes 1.49193
lfemur 6.86127 2.73101 -16.0237
ltibia 21.6364
lfoot -1.64346 9.02777
ltoes -7.2081
